<svg width="400" height="400" viewBox="0 0 400 400" fill="none" xmlns="http://www.w3.org/2000/svg">
<g clip-path="url(#clip0)">
<path d="M391.668 133.336H366.669C364.712 133.338 362.818 134.029 361.319 135.286L102.998 335.277C101.109 336.858 100.017 339.195 100.015 341.66V374.992C100.015 379.594 103.746 383.325 108.348 383.325H391.668C396.27 383.325 400.001 379.594 400.001 374.992V141.67C400.001 137.068 396.27 133.336 391.668 133.336Z" fill="#A4B5BD"/>
<path d="M358.335 83.3389H333.337C331.38 83.3405 329.486 84.0311 327.987 85.2888L69.6658 301.945C67.7769 303.527 66.6847 305.863 66.6824 308.328V341.66C66.6824 346.262 70.4134 349.993 75.0156 349.993H358.335C362.937 349.993 366.669 346.262 366.669 341.66V91.6721C366.668 87.07 362.937 83.3389 358.335 83.3389Z" fill="#B1BFC6"/>
<path d="M325.005 50.007H300.006C298.049 50.0086 296.155 50.6992 294.656 51.9569L36.3353 268.614C34.4463 270.196 33.3542 272.532 33.3518 274.997V308.329C33.3518 312.931 37.0829 316.662 41.685 316.662H325.005C329.607 316.662 333.338 312.931 333.338 308.329V58.341C333.338 53.7381 329.607 50.007 325.005 50.007Z" fill="#C6CED2"/>
<path d="M291.674 16.6757H8.35516C3.75304 16.6757 0.0219727 20.4068 0.0219727 25.0089V274.997C0.0243163 279.599 3.75773 283.328 8.35985 283.324C11.1871 283.323 13.8205 281.888 15.3548 279.513L84.7678 171.535L127.466 214.232C129.266 216.126 131.885 217.011 134.465 216.599C137.04 216.257 139.307 214.735 140.599 212.483L199.529 109.338L284.225 278.729C285.638 281.549 288.521 283.329 291.675 283.329C292.321 283.332 292.965 283.254 293.591 283.096C297.348 282.208 300.003 278.856 300.007 274.996V25.0081C300.007 20.406 296.276 16.6757 291.674 16.6757Z" fill="#E6ECEF"/>
<path d="M91.6814 133.336C114.692 133.336 133.346 114.683 133.346 91.672C133.346 68.6614 114.692 50.0076 91.6814 50.0076C68.6709 50.0076 50.0171 68.6614 50.0171 91.672C50.0171 114.683 68.6709 133.336 91.6814 133.336Z" fill="#FFC107"/>
<path d="M299.123 271.263L207.461 87.9385C206.087 85.1926 203.314 83.4255 200.245 83.3388C197.189 83.3216 194.351 84.9176 192.779 87.5386L131.532 194.733L89.2508 152.435C87.4907 150.614 84.9838 149.715 82.4675 150.002C79.9614 150.273 77.7131 151.664 76.3514 153.785L1.35506 270.446C-1.1581 274.301 -0.0690868 279.464 3.78619 281.977C5.14472 282.863 6.73292 283.332 8.35472 283.328H291.674C296.277 283.328 300.008 279.597 300.007 274.995C300.006 273.7 299.704 272.422 299.123 271.263Z" fill="#293858"/>
</g>
<defs>
<clipPath id="clip0">
<rect width="400" height="400" fill="white"/>
</clipPath>
</defs>
</svg>
