<svg width="400" height="400" viewBox="0 0 400 400" fill="none" xmlns="http://www.w3.org/2000/svg">
<g clip-path="url(#clip0)">
<path d="M368.293 400C350.781 400 336.586 386.343 336.586 369.497V66.6667C336.586 57.6862 329.306 50.4065 320.326 50.4065H16.2602C7.27969 50.4065 0 57.687 0 66.6667V369.496C0 386.343 14.1961 400 31.707 400H368.293Z" fill="#E7ECF6"/>
<path d="M26.0168 225.121V339.106C26.0168 343.551 29.62 347.154 34.0653 347.154H131.79C136.235 347.154 139.838 343.551 139.838 339.106V225.121C139.838 220.676 136.235 217.073 131.79 217.073H34.0653C29.62 217.074 26.0168 220.677 26.0168 225.121V225.121Z" fill="#F2994A"/>
<path d="M26.0168 82.8532V177.309C26.0168 181.31 29.2598 184.553 33.2606 184.553H303.326C307.327 184.553 310.57 181.31 310.57 177.309V82.8532C310.57 78.8524 307.327 75.6094 303.326 75.6094H33.2598C29.2598 75.6094 26.0168 78.8532 26.0168 82.8532V82.8532Z" fill="#FFE07D"/>
<path d="M384.146 0C375.391 0 368.292 7.09766 368.292 15.8539V301.627C368.292 310.607 361.013 317.887 352.032 317.887H336.585V66.6664C336.585 57.6859 329.306 50.4062 320.325 50.4062H33.3337V15.8539C33.3337 7.09766 40.4314 0 49.1869 0L384.146 0Z" fill="#D8E2F1"/>
<path d="M336.584 369.496C336.584 386.342 350.781 399.999 368.292 399.999C385.803 399.999 399.999 386.342 399.999 369.496V16.2331C399.999 7.637 393.315 0.315126 384.723 0.00965713C375.704 -0.310655 368.291 6.90497 368.291 15.8534V301.626C368.291 310.607 361.012 317.886 352.031 317.886H336.584V369.496Z" fill="#A2B9E2"/>
<path d="M304.533 223.109H172.358C169.024 223.109 166.322 220.407 166.322 217.074C166.322 213.74 169.024 211.038 172.358 211.038H304.533C307.867 211.038 310.569 213.74 310.569 217.074C310.569 220.407 307.867 223.109 304.533 223.109Z" fill="#293858"/>
<path d="M304.533 249.126H172.358C169.024 249.126 166.322 246.424 166.322 243.09C166.322 239.756 169.024 237.054 172.358 237.054H304.533C307.867 237.054 310.569 239.756 310.569 243.09C310.569 246.424 307.867 249.126 304.533 249.126Z" fill="#293858"/>
<path d="M304.533 275.142H172.358C169.024 275.142 166.322 272.44 166.322 269.106C166.322 265.773 169.024 263.07 172.358 263.07H304.533C307.867 263.07 310.569 265.773 310.569 269.106C310.569 272.44 307.867 275.142 304.533 275.142Z" fill="#293858"/>
<path d="M304.533 301.158H172.358C169.024 301.158 166.322 298.456 166.322 295.122C166.322 291.788 169.024 289.086 172.358 289.086H304.533C307.867 289.086 310.569 291.788 310.569 295.122C310.569 298.456 307.867 301.158 304.533 301.158Z" fill="#293858"/>
<path d="M304.533 327.174H172.358C169.024 327.174 166.322 324.472 166.322 321.138C166.322 317.805 169.024 315.103 172.358 315.103H304.533C307.867 315.103 310.569 317.805 310.569 321.138C310.569 324.472 307.867 327.174 304.533 327.174Z" fill="#293858"/>
<path d="M304.533 353.191H172.358C169.024 353.191 166.322 350.488 166.322 347.155C166.322 343.821 169.024 341.119 172.358 341.119H304.533C307.867 341.119 310.569 343.821 310.569 347.155C310.569 350.488 307.867 353.191 304.533 353.191Z" fill="#293858"/>
<path d="M304.533 379.207H32.0528C28.7192 379.207 26.0168 376.505 26.0168 373.171C26.0168 369.838 28.7192 367.135 32.0528 367.135H304.533C307.867 367.135 310.569 369.838 310.569 373.171C310.569 376.505 307.867 379.207 304.533 379.207Z" fill="#293858"/>
<path d="M49.8384 164.577C46.5048 164.577 43.8025 161.875 43.8025 158.541V101.736C43.8025 99.095 45.5205 96.7598 48.0423 95.9739C50.565 95.1879 53.3048 96.1325 54.8056 98.3067L83.5205 139.887L83.1509 101.689C83.1189 98.3559 85.7947 95.627 89.1283 95.595C89.1478 95.5942 89.1681 95.5942 89.1876 95.5942C92.4939 95.5942 95.1908 98.2582 95.222 101.572L95.754 156.564C95.7548 159.976 93.8712 162.731 90.9572 163.642C88.1119 164.531 85.0978 163.411 83.2814 160.786L55.8751 121.1V158.542C55.8744 161.875 53.172 164.577 49.8384 164.577Z" fill="#9DC6FB"/>
<path d="M139.22 152.501H121.276V136.118H137.451C140.785 136.118 143.487 133.416 143.487 130.082C143.487 126.748 140.785 124.046 137.451 124.046H121.276V107.663H139.22C142.553 107.663 145.256 104.961 145.256 101.627C145.256 98.2938 142.553 95.5914 139.22 95.5914H115.24C111.906 95.5914 109.204 98.2938 109.204 101.627V158.538C109.204 161.872 111.906 164.574 115.24 164.574H139.22C142.553 164.574 145.256 161.872 145.256 158.538C145.256 155.205 142.553 152.501 139.22 152.501Z" fill="#9DC6FB"/>
<path d="M269.621 164.573C260.315 164.573 251.229 160.678 245.316 154.154C243.077 151.684 243.265 147.866 245.735 145.628C248.205 143.389 252.023 143.577 254.261 146.047C257.923 150.088 263.666 152.501 269.62 152.501C275.685 152.501 279.977 148.759 280.623 145.141C281.256 141.598 278.285 138.337 272.473 136.193C263.68 132.949 255.875 129.475 255.546 129.328C255.255 129.199 254.976 129.046 254.709 128.873C249.063 125.192 246.155 118.736 247.119 112.023C248.149 104.841 253.418 98.9843 260.87 96.7406C275.865 92.2242 288.23 102.42 288.748 102.855C291.301 105.001 291.631 108.809 289.485 111.36C287.348 113.905 283.559 114.241 281.006 112.119C280.815 111.963 272.956 105.71 264.351 108.3C260.104 109.58 259.242 112.53 259.068 113.738C258.795 115.644 259.504 117.405 260.974 118.529C262.83 119.343 269.487 122.224 276.651 124.867C290.385 129.933 293.847 139.758 292.507 147.263C290.717 157.294 281.092 164.573 269.621 164.573V164.573Z" fill="#9DC6FB"/>
<path d="M228.071 95.8101C224.803 95.1617 221.623 97.282 220.972 100.552L213.546 137.868L201.834 99.8492C200.853 96.6632 197.473 94.8773 194.289 95.8578C192.097 96.5328 190.568 98.3421 190.146 100.443L178.561 137.872L171.16 100.455C170.513 97.1843 167.334 95.0578 164.068 95.7054C160.797 96.3523 158.671 99.5281 159.318 102.798L170.406 158.854C170.463 159.142 170.541 159.426 170.639 159.702C171.675 162.621 174.444 164.573 177.538 164.573H177.587C180.701 164.552 183.467 162.558 184.469 159.609C184.487 159.557 184.504 159.504 184.521 159.451L196.07 122.137L207.568 159.459C207.593 159.541 207.62 159.623 207.649 159.704C208.686 162.621 211.454 164.573 214.546 164.573H214.596C217.709 164.552 220.475 162.557 221.477 159.609C221.562 159.359 221.631 159.103 221.682 158.844L232.812 102.909C233.463 99.639 231.34 96.4609 228.071 95.8101V95.8101Z" fill="#9DC6FB"/>
</g>
<defs>
<clipPath id="clip0">
<rect width="400" height="400" fill="white"/>
</clipPath>
</defs>
</svg>
