<svg width="400" height="400" viewBox="0 0 400 400" fill="none" xmlns="http://www.w3.org/2000/svg">
<path d="M393.75 325V6.25H6.25V325H393.75Z" fill="url(#paint0_linear)"/>
<path d="M393.75 325V312.5H6.25V325H393.75Z" fill="#C7CDD8"/>
<path d="M343.75 206.25H262.5V393.75H343.75V206.25Z" fill="url(#paint1_linear)"/>
<path d="M393.75 6.25H6.25V56.25H393.75V6.25Z" fill="url(#paint2_linear)"/>
<path d="M43.75 31.25C43.75 32.9076 43.0915 34.4973 41.9194 35.6694C40.7473 36.8415 39.1576 37.5 37.5 37.5C35.8424 37.5 34.2527 36.8415 33.0806 35.6694C31.9085 34.4973 31.25 32.9076 31.25 31.25C31.25 29.5924 31.9085 28.0027 33.0806 26.8306C34.2527 25.6585 35.8424 25 37.5 25C39.1576 25 40.7473 25.6585 41.9194 26.8306C43.0915 28.0027 43.75 29.5924 43.75 31.25V31.25Z" fill="#CF4055"/>
<path d="M75 31.25C75 32.9076 74.3415 34.4973 73.1694 35.6694C71.9973 36.8415 70.4076 37.5 68.75 37.5C67.0924 37.5 65.5027 36.8415 64.3306 35.6694C63.1585 34.4973 62.5 32.9076 62.5 31.25C62.5 29.5924 63.1585 28.0027 64.3306 26.8306C65.5027 25.6585 67.0924 25 68.75 25C70.4076 25 71.9973 25.6585 73.1694 26.8306C74.3415 28.0027 75 29.5924 75 31.25Z" fill="#F6B756"/>
<path d="M106.25 31.25C106.25 32.9076 105.592 34.4973 104.419 35.6694C103.247 36.8415 101.658 37.5 100 37.5C98.3424 37.5 96.7527 36.8415 95.5806 35.6694C94.4085 34.4973 93.75 32.9076 93.75 31.25C93.75 29.5924 94.4085 28.0027 95.5806 26.8306C96.7527 25.6585 98.3424 25 100 25C101.658 25 103.247 25.6585 104.419 26.8306C105.592 28.0027 106.25 29.5924 106.25 31.25Z" fill="#7ECE67"/>
<path d="M250 118.75H150V143.75H250V118.75Z" fill="#9CA0AD"/>
<path d="M262.5 143.75H137.5V312.5H262.5V143.75Z" fill="url(#paint3_linear)"/>
<path d="M137.5 206.25H56.25V393.75H137.5V206.25Z" fill="url(#paint4_linear)"/>
<path d="M137.5 381.25H56.25V393.75H137.5V381.25Z" fill="#293858"/>
<path d="M343.75 381.25H262.5V393.75H343.75V381.25Z" fill="#293858"/>
<path d="M193.75 187.5V175C193.75 173.342 194.408 171.753 195.581 170.581C196.753 169.408 198.342 168.75 200 168.75C201.658 168.75 203.247 169.408 204.419 170.581C205.592 171.753 206.25 173.342 206.25 175V187.5C206.25 189.158 205.592 190.747 204.419 191.919C203.247 193.092 201.658 193.75 200 193.75C198.342 193.75 196.753 193.092 195.581 191.919C194.408 190.747 193.75 189.158 193.75 187.5Z" fill="#D7F1FF"/>
<path d="M225 187.5V175C225 173.342 225.658 171.753 226.831 170.581C228.003 169.408 229.592 168.75 231.25 168.75C232.908 168.75 234.497 169.408 235.669 170.581C236.842 171.753 237.5 173.342 237.5 175V187.5C237.5 189.158 236.842 190.747 235.669 191.919C234.497 193.092 232.908 193.75 231.25 193.75C229.592 193.75 228.003 193.092 226.831 191.919C225.658 190.747 225 189.158 225 187.5Z" fill="#D7F1FF"/>
<path d="M162.5 187.5V175C162.5 173.342 163.158 171.753 164.331 170.581C165.503 169.408 167.092 168.75 168.75 168.75C170.408 168.75 171.997 169.408 173.169 170.581C174.342 171.753 175 173.342 175 175V187.5C175 189.158 174.342 190.747 173.169 191.919C171.997 193.092 170.408 193.75 168.75 193.75C167.092 193.75 165.503 193.092 164.331 191.919C163.158 190.747 162.5 189.158 162.5 187.5Z" fill="#D7F1FF"/>
<path d="M193.75 231.25V218.75C193.75 217.092 194.408 215.503 195.581 214.331C196.753 213.158 198.342 212.5 200 212.5C201.658 212.5 203.247 213.158 204.419 214.331C205.592 215.503 206.25 217.092 206.25 218.75V231.25C206.25 232.908 205.592 234.497 204.419 235.669C203.247 236.842 201.658 237.5 200 237.5C198.342 237.5 196.753 236.842 195.581 235.669C194.408 234.497 193.75 232.908 193.75 231.25Z" fill="#D7F1FF"/>
<path d="M225 231.25V218.75C225 217.092 225.658 215.503 226.831 214.331C228.003 213.158 229.592 212.5 231.25 212.5C232.908 212.5 234.497 213.158 235.669 214.331C236.842 215.503 237.5 217.092 237.5 218.75V231.25C237.5 232.908 236.842 234.497 235.669 235.669C234.497 236.842 232.908 237.5 231.25 237.5C229.592 237.5 228.003 236.842 226.831 235.669C225.658 234.497 225 232.908 225 231.25Z" fill="#D7F1FF"/>
<path d="M162.5 231.25V218.75C162.5 217.092 163.158 215.503 164.331 214.331C165.503 213.158 167.092 212.5 168.75 212.5C170.408 212.5 171.997 213.158 173.169 214.331C174.342 215.503 175 217.092 175 218.75V231.25C175 232.908 174.342 234.497 173.169 235.669C171.997 236.842 170.408 237.5 168.75 237.5C167.092 237.5 165.503 236.842 164.331 235.669C163.158 234.497 162.5 232.908 162.5 231.25Z" fill="#D7F1FF"/>
<path d="M112.5 243.75H81.25C79.5924 243.75 78.0027 243.092 76.8306 241.919C75.6585 240.747 75 239.158 75 237.5C75 235.842 75.6585 234.253 76.8306 233.081C78.0027 231.908 79.5924 231.25 81.25 231.25H112.5C114.158 231.25 115.747 231.908 116.919 233.081C118.092 234.253 118.75 235.842 118.75 237.5C118.75 239.158 118.092 240.747 116.919 241.919C115.747 243.092 114.158 243.75 112.5 243.75Z" fill="#D7F1FF"/>
<path d="M112.5 275H81.25C79.5924 275 78.0027 274.342 76.8306 273.169C75.6585 271.997 75 270.408 75 268.75C75 267.092 75.6585 265.503 76.8306 264.331C78.0027 263.158 79.5924 262.5 81.25 262.5H112.5C114.158 262.5 115.747 263.158 116.919 264.331C118.092 265.503 118.75 267.092 118.75 268.75C118.75 270.408 118.092 271.997 116.919 273.169C115.747 274.342 114.158 275 112.5 275Z" fill="#D7F1FF"/>
<path d="M318.75 243.75H287.5C285.842 243.75 284.253 243.092 283.081 241.919C281.908 240.747 281.25 239.158 281.25 237.5C281.25 235.842 281.908 234.253 283.081 233.081C284.253 231.908 285.842 231.25 287.5 231.25H318.75C320.408 231.25 321.997 231.908 323.169 233.081C324.342 234.253 325 235.842 325 237.5C325 239.158 324.342 240.747 323.169 241.919C321.997 243.092 320.408 243.75 318.75 243.75Z" fill="#D7F1FF"/>
<path d="M318.75 275H287.5C285.842 275 284.253 274.342 283.081 273.169C281.908 271.997 281.25 270.408 281.25 268.75C281.25 267.092 281.908 265.503 283.081 264.331C284.253 263.158 285.842 262.5 287.5 262.5H318.75C320.408 262.5 321.997 263.158 323.169 264.331C324.342 265.503 325 267.092 325 268.75C325 270.408 324.342 271.997 323.169 273.169C321.997 274.342 320.408 275 318.75 275Z" fill="#D7F1FF"/>
<path d="M112.5 306.25H81.25C79.5924 306.25 78.0027 305.592 76.8306 304.419C75.6585 303.247 75 301.658 75 300C75 298.342 75.6585 296.753 76.8306 295.581C78.0027 294.408 79.5924 293.75 81.25 293.75H112.5C114.158 293.75 115.747 294.408 116.919 295.581C118.092 296.753 118.75 298.342 118.75 300C118.75 301.658 118.092 303.247 116.919 304.419C115.747 305.592 114.158 306.25 112.5 306.25Z" fill="#D7F1FF"/>
<path d="M112.5 337.5H81.25C79.5924 337.5 78.0027 336.842 76.8306 335.669C75.6585 334.497 75 332.908 75 331.25C75 329.592 75.6585 328.003 76.8306 326.831C78.0027 325.658 79.5924 325 81.25 325H112.5C114.158 325 115.747 325.658 116.919 326.831C118.092 328.003 118.75 329.592 118.75 331.25C118.75 332.908 118.092 334.497 116.919 335.669C115.747 336.842 114.158 337.5 112.5 337.5Z" fill="#D7F1FF"/>
<path d="M318.75 306.25H287.5C285.842 306.25 284.253 305.592 283.081 304.419C281.908 303.247 281.25 301.658 281.25 300C281.25 298.342 281.908 296.753 283.081 295.581C284.253 294.408 285.842 293.75 287.5 293.75H318.75C320.408 293.75 321.997 294.408 323.169 295.581C324.342 296.753 325 298.342 325 300C325 301.658 324.342 303.247 323.169 304.419C321.997 305.592 320.408 306.25 318.75 306.25Z" fill="#D7F1FF"/>
<path d="M318.75 337.5H287.5C285.842 337.5 284.253 336.842 283.081 335.669C281.908 334.497 281.25 332.908 281.25 331.25C281.25 329.592 281.908 328.003 283.081 326.831C284.253 325.658 285.842 325 287.5 325H318.75C320.408 325 321.997 325.658 323.169 326.831C324.342 328.003 325 329.592 325 331.25C325 332.908 324.342 334.497 323.169 335.669C321.997 336.842 320.408 337.5 318.75 337.5Z" fill="#D7F1FF"/>
<path d="M312.5 393.75V356.25H285.437C283.215 346.166 279.215 336.557 273.625 327.875L292.812 308.687L266.313 282.188L247.125 301.375C238.443 295.785 228.834 291.785 218.75 289.563V262.5H181.25V289.563C171.166 291.785 161.557 295.785 152.875 301.375L133.687 282.188L107.187 308.687L126.375 327.875C120.785 336.557 116.785 346.166 114.562 356.25H87.5V393.75H312.5Z" fill="url(#paint5_linear)"/>
<path d="M168.75 375C165.312 375 166.062 375 145.562 354.438C144.976 353.857 144.511 353.165 144.194 352.404C143.877 351.642 143.713 350.825 143.713 350C143.713 349.175 143.877 348.358 144.194 347.596C144.511 346.835 144.976 346.144 145.562 345.563L164.312 326.813C165.489 325.636 167.085 324.974 168.75 324.974C170.414 324.974 172.01 325.636 173.187 326.813C174.364 327.989 175.025 329.586 175.025 331.25C175.025 332.914 174.364 334.511 173.187 335.688L158.812 350L173.187 364.313C174.069 365.187 174.67 366.304 174.914 367.521C175.158 368.738 175.034 370 174.558 371.147C174.082 372.293 173.275 373.272 172.241 373.958C171.206 374.645 169.991 375.007 168.75 375Z" fill="#FFF2E3"/>
<path d="M231.25 375C230.008 375.007 228.793 374.645 227.758 373.958C226.724 373.272 225.917 372.293 225.441 371.147C224.965 370 224.841 368.738 225.085 367.521C225.33 366.304 225.931 365.187 226.812 364.313L241.187 350L226.812 335.688C225.635 334.511 224.974 332.914 224.974 331.25C224.974 329.586 225.635 327.989 226.812 326.813C227.989 325.636 229.585 324.974 231.25 324.974C232.914 324.974 234.51 325.636 235.687 326.813L254.437 345.563C255.023 346.144 255.488 346.835 255.805 347.596C256.123 348.358 256.286 349.175 256.286 350C256.286 350.825 256.123 351.642 255.805 352.404C255.488 353.165 255.023 353.857 254.437 354.438C234.937 373.875 234.875 375 231.25 375Z" fill="#FFF2E3"/>
<path d="M193.749 375C192.755 375.003 191.775 374.768 190.89 374.316C190.005 373.864 189.241 373.208 188.66 372.401C188.08 371.594 187.7 370.661 187.552 369.678C187.405 368.695 187.494 367.692 187.812 366.75L200.312 329.25C200.842 327.675 201.976 326.376 203.465 325.637C204.953 324.899 206.674 324.782 208.249 325.313C209.824 325.843 211.123 326.977 211.862 328.466C212.6 329.954 212.717 331.675 212.187 333.25C198.874 373.188 199.999 375 193.749 375Z" fill="#FFF2E3"/>
<path d="M312.5 381.25H87.5V393.75H312.5V381.25Z" fill="#F2994A"/>
<defs>
<linearGradient id="paint0_linear" x1="200" y1="325" x2="200" y2="6.25" gradientUnits="userSpaceOnUse">
<stop stop-color="#D4D8E1"/>
<stop offset="1" stop-color="#F3F4F5"/>
</linearGradient>
<linearGradient id="paint1_linear" x1="303.125" y1="393.75" x2="303.125" y2="206.25" gradientUnits="userSpaceOnUse">
<stop stop-color="#293858"/>
<stop offset="1" stop-color="#6177CD"/>
</linearGradient>
<linearGradient id="paint2_linear" x1="200" y1="56.25" x2="200" y2="6.25" gradientUnits="userSpaceOnUse">
<stop stop-color="#A0A6BA"/>
<stop offset="1" stop-color="#C6CCDA"/>
</linearGradient>
<linearGradient id="paint3_linear" x1="4137.5" y1="8581.25" x2="4137.5" y2="4025" gradientUnits="userSpaceOnUse">
<stop stop-color="#293858"/>
<stop offset="1" stop-color="#4B69DD"/>
</linearGradient>
<linearGradient id="paint4_linear" x1="1315.62" y1="206.25" x2="1315.62" y2="206.25" gradientUnits="userSpaceOnUse">
<stop stop-color="#293858"/>
<stop offset="1" stop-color="#4760BE"/>
</linearGradient>
<linearGradient id="paint5_linear" x1="200" y1="393.75" x2="200" y2="262.5" gradientUnits="userSpaceOnUse">
<stop stop-color="#EF923F"/>
<stop offset="1" stop-color="#DBB491"/>
</linearGradient>
</defs>
</svg>
