<svg width="400" height="400" viewBox="0 0 400 400" fill="none" xmlns="http://www.w3.org/2000/svg">
<path d="M175 250H100V81.25C100 61.3587 107.902 42.2822 121.967 28.217C136.032 14.1517 155.109 6.24997 175 6.24997C203.188 6.24997 221.313 3.87497 243.75 18.75C258.668 18.75 272.976 24.6763 283.525 35.2252C294.074 45.7741 300 60.0815 300 75V250H225" fill="url(#paint0_linear)"/>
<path d="M300 231.25H100V250H300V231.25Z" fill="#8A6762"/>
<path d="M225 220.687V250L200 268.75L175 250V220.687C191.171 226.437 208.829 226.437 225 220.687Z" fill="url(#paint1_linear)"/>
<path d="M225 220.687V233.187C208.829 238.937 191.171 238.937 175 233.187V220.687C191.171 226.437 208.829 226.437 225 220.687Z" fill="#FCD2C3"/>
<path d="M131.249 125C130.218 124.999 129.202 124.743 128.294 124.254C127.385 123.766 126.612 123.06 126.043 122.2C125.473 121.339 125.126 120.352 125.031 119.324C124.936 118.297 125.097 117.262 125.499 116.312L131.249 102.875C157.437 41.75 200.562 87.8125 246.562 57.3125C247.76 56.51 249.198 56.1464 250.633 56.283C252.068 56.4197 253.412 57.0484 254.437 58.0625C274.999 78.4375 271.749 98.625 274.999 117.75C275.264 119.408 274.86 121.103 273.876 122.462C272.891 123.822 271.407 124.735 269.749 125C268.092 125.265 266.397 124.861 265.037 123.877C263.677 122.892 262.764 121.408 262.499 119.75C259.874 103.5 264.249 87.9375 248.874 70.5C199.999 98.5625 164.062 58 142.624 108C137.499 120.5 136.687 125 131.249 125Z" fill="#8A6762"/>
<path d="M281.25 156.25H262.5V118.75H281.25C286.223 118.75 290.992 120.725 294.508 124.242C298.025 127.758 300 132.527 300 137.5C300 142.473 298.025 147.242 294.508 150.758C290.992 154.275 286.223 156.25 281.25 156.25V156.25Z" fill="url(#paint2_linear)"/>
<path d="M118.75 118.75H137.5V156.25H118.75C113.777 156.25 109.008 154.275 105.492 150.758C101.975 147.242 100 142.473 100 137.5C100 132.527 101.975 127.758 105.492 124.242C109.008 120.725 113.777 118.75 118.75 118.75V118.75Z" fill="url(#paint3_linear)"/>
<path d="M275.001 125V150C275.001 169.891 267.099 188.968 253.034 203.033C238.968 217.098 219.892 225 200.001 225C180.109 225 161.033 217.098 146.968 203.033C132.902 188.968 125.001 169.891 125.001 150C125.001 119.938 123.501 128.5 130.751 111.563C134.297 103.192 140.058 95.9463 147.414 90.6053C154.77 85.2643 163.443 82.0299 172.501 81.25C198.438 79 221.938 87.5 250.001 68.75C269.188 87.9375 272.063 107.063 275.001 125Z" fill="url(#paint4_linear)"/>
<path d="M182.313 183.812C182.894 183.227 183.585 182.762 184.347 182.444C185.109 182.127 185.926 181.964 186.751 181.964C187.576 181.964 188.393 182.127 189.154 182.444C189.916 182.762 190.607 183.227 191.188 183.812C193.53 186.141 196.698 187.447 200.001 187.447C203.303 187.447 206.471 186.141 208.813 183.812C209.99 182.636 211.586 181.974 213.251 181.974C214.915 181.974 216.511 182.636 217.688 183.812C218.865 184.989 219.526 186.586 219.526 188.25C219.526 189.914 218.865 191.511 217.688 192.687C200.876 209.437 173.001 193.187 182.313 183.812Z" fill="#E8677D"/>
<path d="M156.25 131.25V125C156.25 123.342 156.908 121.753 158.081 120.581C159.253 119.408 160.842 118.75 162.5 118.75C164.158 118.75 165.747 119.408 166.919 120.581C168.092 121.753 168.75 123.342 168.75 125V131.25C168.75 132.908 168.092 134.497 166.919 135.669C165.747 136.842 164.158 137.5 162.5 137.5C160.842 137.5 159.253 136.842 158.081 135.669C156.908 134.497 156.25 132.908 156.25 131.25Z" fill="#42455E"/>
<path d="M231.25 131.25V125C231.25 123.342 231.908 121.753 233.081 120.581C234.253 119.408 235.842 118.75 237.5 118.75C239.158 118.75 240.747 119.408 241.919 120.581C243.092 121.753 243.75 123.342 243.75 125V131.25C243.75 132.908 243.092 134.497 241.919 135.669C240.747 136.842 239.158 137.5 237.5 137.5C235.842 137.5 234.253 136.842 233.081 135.669C231.908 134.497 231.25 132.908 231.25 131.25Z" fill="#42455E"/>
<path d="M275 131.937C272.313 115.813 264.188 100.312 248.938 83C225.563 96.4375 206.813 93.75 176.75 93.75C159.188 93.75 137.125 104.187 130.25 120.25C123.375 136.312 125 136.125 125 125L130.75 111.562C134.607 102.56 141.022 94.8885 149.199 89.4997C157.377 84.1109 166.957 81.2423 176.75 81.25H209.438C237.563 79.8125 245.188 68.75 250 68.75C258.117 77.1218 264.503 87.0119 268.792 97.8544C273.082 108.697 275.192 120.279 275 131.937Z" fill="#FCD2C3"/>
<path d="M350 393.75H50C58.75 341.312 59.375 313.687 87.5 282.687H312.5C341.063 314.187 341.687 343.75 350 393.75Z" fill="url(#paint5_linear)"/>
<path d="M350 393.75H50L53.125 375H346.875L350 393.75Z" fill="#C7CDD8"/>
<path d="M100 393.75H200V250H87.5V338.625" fill="url(#paint6_linear)"/>
<path d="M293.75 393.75H200V250H312.5V340.875" fill="url(#paint7_linear)"/>
<path d="M287.5 281.25H225V312.5H287.5V281.25Z" fill="#DFE3EA"/>
<path d="M75 393.75V362.5C75 355.87 77.6339 349.511 82.3223 344.822C87.0107 340.134 93.3696 337.5 100 337.5C106.63 337.5 112.989 340.134 117.678 344.822C122.366 349.511 125 355.87 125 362.5V375C125 379.973 123.025 384.742 119.508 388.258C115.992 391.775 111.223 393.75 106.25 393.75H75Z" fill="url(#paint8_linear)"/>
<path d="M325 393.75V362.5C325 355.87 322.366 349.511 317.678 344.822C312.989 340.134 306.63 337.5 300 337.5C293.37 337.5 287.011 340.134 282.322 344.822C277.634 349.511 275 355.87 275 362.5V375C275 379.973 276.975 384.742 280.492 388.258C284.008 391.775 288.777 393.75 293.75 393.75H325Z" fill="url(#paint9_linear)"/>
<path d="M125 362.5V375C125 379.973 123.025 384.742 119.508 388.258C115.992 391.775 111.223 393.75 106.25 393.75H75V381.25H106.25C111.223 381.25 115.992 379.275 119.508 375.758C123.025 372.242 125 367.473 125 362.5Z" fill="#EAB39B"/>
<path d="M325 381.25V393.75H293.75C288.777 393.75 284.008 391.775 280.492 388.258C276.975 384.742 275 379.973 275 375V362.5C275 367.473 276.975 372.242 280.492 375.758C284.008 379.275 288.777 381.25 293.75 381.25H325Z" fill="#EAB39B"/>
<defs>
<linearGradient id="paint0_linear" x1="200" y1="250" x2="200" y2="6.12497" gradientUnits="userSpaceOnUse">
<stop stop-color="#9B756D"/>
<stop offset="1" stop-color="#BC9388"/>
</linearGradient>
<linearGradient id="paint1_linear" x1="200" y1="268.75" x2="200" y2="220.687" gradientUnits="userSpaceOnUse">
<stop stop-color="#F2C4B0"/>
<stop offset="1" stop-color="#FFE3D7"/>
</linearGradient>
<linearGradient id="paint2_linear" x1="1950" y1="1056.25" x2="1950" y2="831.25" gradientUnits="userSpaceOnUse">
<stop stop-color="#F2C4B0"/>
<stop offset="1" stop-color="#FFE3D7"/>
</linearGradient>
<linearGradient id="paint3_linear" x1="812.5" y1="1056.25" x2="812.5" y2="831.25" gradientUnits="userSpaceOnUse">
<stop stop-color="#F2C4B0"/>
<stop offset="1" stop-color="#FFE3D7"/>
</linearGradient>
<linearGradient id="paint4_linear" x1="4927.48" y1="5693.75" x2="4927.48" y2="1787.5" gradientUnits="userSpaceOnUse">
<stop stop-color="#F2C4B0"/>
<stop offset="1" stop-color="#FFE3D7"/>
</linearGradient>
<linearGradient id="paint5_linear" x1="200" y1="393.75" x2="200" y2="282.687" gradientUnits="userSpaceOnUse">
<stop stop-color="#D4D8E1"/>
<stop offset="1" stop-color="#F3F4F5"/>
</linearGradient>
<linearGradient id="paint6_linear" x1="87.5" y1="321.875" x2="200" y2="321.875" gradientUnits="userSpaceOnUse">
<stop stop-color="#F2994A"/>
<stop offset="1" stop-color="#FFD2A9"/>
</linearGradient>
<linearGradient id="paint7_linear" x1="3800" y1="250" x2="5825" y2="250" gradientUnits="userSpaceOnUse">
<stop stop-color="#FCC28E"/>
<stop offset="1" stop-color="#FFD8B6"/>
</linearGradient>
<linearGradient id="paint8_linear" x1="875" y1="3881.25" x2="875" y2="3375" gradientUnits="userSpaceOnUse">
<stop stop-color="#F2C4B0"/>
<stop offset="1" stop-color="#FFE3D7"/>
</linearGradient>
<linearGradient id="paint9_linear" x1="2675" y1="3881.25" x2="2675" y2="3375" gradientUnits="userSpaceOnUse">
<stop stop-color="#F2C4B0"/>
<stop offset="1" stop-color="#FFE3D7"/>
</linearGradient>
</defs>
</svg>
