<svg width="400" height="400" viewBox="0 0 400 400" fill="none" xmlns="http://www.w3.org/2000/svg">
<path d="M331.25 206.25V12.5C331.25 10.8424 331.908 9.25268 333.081 8.08058C334.253 6.90848 335.842 6.25 337.5 6.25C339.158 6.25 340.747 6.90848 341.919 8.08058C343.091 9.25268 343.75 10.8424 343.75 12.5V206.25C343.75 207.908 343.091 209.497 341.919 210.669C340.747 211.842 339.158 212.5 337.5 212.5C335.842 212.5 334.253 211.842 333.081 210.669C331.908 209.497 331.25 207.908 331.25 206.25Z" fill="#ADB3C4"/>
<path d="M312.5 393.75H12.5C16.5 369.75 21 342.875 25.3125 316.875C28.3944 298.42 37.3108 281.439 50.753 268.424C64.1952 255.409 81.4553 247.046 100 244.562C107.625 243.437 103.438 243.75 213.438 243.75C234.195 243.69 254.298 251.012 270.155 264.407C286.012 277.803 296.59 296.399 300 316.875C304 342.875 308.5 369.75 312.5 393.75Z" fill="url(#paint0_linear)"/>
<path d="M237.5 57.4366C237.5 156.999 237.5 152.749 236.937 159.124C234.604 178.073 225.131 195.419 210.45 207.626C195.769 219.832 176.986 225.98 157.929 224.816C138.872 223.653 120.976 215.265 107.89 201.363C94.803 187.461 87.511 169.092 87.5 149.999V57.4366H237.5Z" fill="url(#paint1_linear)"/>
<path d="M162.5 268.749L120.625 292.686L112.5 243.749H137.5L162.5 268.749Z" fill="url(#paint2_linear)"/>
<path d="M187.5 220.687V243.75L162.5 268.75L137.5 243.75V220.687C153.671 226.437 171.329 226.437 187.5 220.687Z" fill="url(#paint3_linear)"/>
<path d="M212.5 243.749L204.375 292.686L162.5 268.749L187.5 243.749H212.5Z" fill="url(#paint4_linear)"/>
<path d="M144.812 183.812C145.393 183.226 146.084 182.761 146.846 182.444C147.607 182.126 148.424 181.963 149.249 181.963C150.074 181.963 150.891 182.126 151.653 182.444C152.414 182.761 153.106 183.226 153.687 183.812C156.029 186.14 159.197 187.447 162.499 187.447C165.802 187.447 168.97 186.14 171.312 183.812C172.489 182.635 174.085 181.974 175.749 181.974C177.414 181.974 179.01 182.635 180.187 183.812C181.364 184.989 182.025 186.585 182.025 188.249C182.025 189.914 181.364 191.51 180.187 192.687C163.374 209.499 135.499 193.187 144.812 183.812Z" fill="#E8677D"/>
<path d="M183.504 280.749L178.941 294.374C177.798 297.83 175.594 300.838 172.643 302.97C169.692 305.102 166.144 306.249 162.504 306.249C147.879 306.249 145.629 293.061 141.504 280.749L162.504 268.749L183.504 280.749Z" fill="url(#paint5_linear)"/>
<path d="M185.938 393.749H139.062C142 369.874 140.438 382.624 148.438 318.749C148.893 315.342 150.569 312.216 153.156 309.952C155.742 307.688 159.063 306.441 162.5 306.441C165.937 306.441 169.258 307.688 171.844 309.952C174.431 312.216 176.107 315.342 176.563 318.749C184.375 381.249 182.938 369.499 185.938 393.749Z" fill="url(#paint6_linear)"/>
<path d="M243.75 156.25H237.5V118.75H243.75C248.723 118.75 253.492 120.725 257.008 124.242C260.524 127.758 262.5 132.527 262.5 137.5C262.5 142.473 260.524 147.242 257.008 150.758C253.492 154.275 248.723 156.25 243.75 156.25V156.25Z" fill="url(#paint7_linear)"/>
<path d="M81.25 118.75H87.5V156.25H81.25C76.2772 156.25 71.5081 154.275 67.9917 150.758C64.4754 147.242 62.5 142.473 62.5 137.5C62.5 132.527 64.4754 127.758 67.9917 124.242C71.5081 120.725 76.2772 118.75 81.25 118.75V118.75Z" fill="url(#paint8_linear)"/>
<path d="M237.5 57.4366C237.5 156.999 237.5 152.749 236.937 159.124L210.063 87.4992C152.5 87.4992 137.938 90.7492 119 74.9992C109.539 87.6117 103.393 102.396 101.125 117.999L87.5 149.249V57.4366H237.5Z" fill="#FCD2C3"/>
<path d="M87.5001 124.999C91.5001 96.9992 98.3751 76.6242 118.75 56.2492C122.591 62.0275 127.804 66.7642 133.922 70.0361C140.04 73.308 146.874 75.0132 153.813 74.9992H218.75L237.5 124.999L248.188 82.3117C250.437 73.2882 250.601 63.8712 248.669 54.7746C246.737 45.678 242.759 37.1407 237.037 29.8102C231.315 22.4797 223.999 16.5484 215.643 12.4662C207.287 8.38391 198.112 6.25784 188.813 6.2492C160.813 6.2492 141.313 3.6867 118.75 18.7492C105.489 18.7492 92.7715 24.017 83.3947 33.3939C74.0179 42.7707 68.7501 55.4884 68.7501 68.7492C68.7314 85.1122 73.1833 101.169 81.6251 115.187L87.5001 124.999Z" fill="url(#paint9_linear)"/>
<path d="M237.5 125L218.75 75H153.813C146.876 75.0029 140.047 73.293 133.93 70.0221C127.813 66.7512 122.599 62.0204 118.75 56.25C97.7501 77.25 91.3126 98.25 87.5001 125C86.2237 110.438 87.8299 95.7663 92.2268 81.8249C96.6237 67.8835 103.725 54.9453 113.125 43.75C117.898 49.7135 123.974 54.5041 130.886 57.7544C137.798 61.0046 145.363 62.628 153 62.5H216.375C219.362 62.4591 222.265 63.4893 224.558 65.4039C226.851 67.3186 228.382 69.9911 228.875 72.9375L237.5 125Z" fill="#8A6762"/>
<path d="M375 299.999H312.5V393.749H375V299.999Z" fill="url(#paint10_linear)"/>
<path d="M387.499 218.749V243.749C387.499 262.499 368.749 274.999 368.749 274.999V299.999H318.749V274.999C318.749 274.999 306.249 262.499 306.249 249.999C306.249 221.062 302.499 193.749 331.249 193.749C335.499 193.749 337.124 195.874 336.749 199.687C345.499 189.312 387.499 190.562 387.499 218.749Z" fill="url(#paint11_linear)"/>
<path d="M349.999 250C349.999 261.437 324.999 256.875 324.999 237.5C324.999 230.812 322.624 200 333.874 194.125C336.312 194.937 336.999 197 336.749 199.687C338.24 198.216 340.062 197.123 342.062 196.5C342.725 197.59 343.039 198.857 342.96 200.131C342.882 201.405 342.416 202.624 341.624 203.625C336.187 210.312 337.499 223.062 337.499 237.5C337.411 238.342 337.512 239.194 337.795 239.992C338.078 240.791 338.535 241.516 339.134 242.115C339.733 242.714 340.458 243.172 341.257 243.454C342.055 243.737 342.907 243.838 343.749 243.75C345.407 243.75 346.997 244.408 348.169 245.58C349.341 246.752 349.999 248.342 349.999 250Z" fill="#EAB39B"/>
<path d="M168.747 126.375C166.776 125.514 164.648 125.07 162.497 125.07C160.346 125.07 158.218 125.514 156.247 126.375C155.901 127.911 154.988 129.261 153.69 130.153C152.392 131.045 150.806 131.415 149.247 131.187C97.2471 123.75 110.685 124.937 87.6221 124.937C85.9645 124.937 84.3748 124.279 83.2026 123.107C82.0305 121.934 81.3721 120.345 81.3721 118.687C81.3721 117.03 82.0305 115.44 83.2026 114.268C84.3748 113.096 85.9645 112.437 87.6221 112.437C113.06 112.437 98.2471 111.187 146.622 118.125C151.114 114.383 156.776 112.334 162.622 112.334C168.468 112.334 174.13 114.383 178.622 118.125C227.185 111.25 212.497 112.5 237.497 112.5C239.155 112.5 240.744 113.158 241.916 114.33C243.089 115.502 243.747 117.092 243.747 118.75C243.747 120.407 243.089 121.997 241.916 123.169C240.744 124.341 239.155 125 237.497 125C213.122 125 227.81 123.75 175.872 131.25C174.285 131.509 172.66 131.148 171.333 130.24C170.006 129.332 169.08 127.948 168.747 126.375Z" fill="#8288A1"/>
<path d="M128.125 150C140.206 150 150 140.206 150 128.125C150 116.044 140.206 106.25 128.125 106.25C116.044 106.25 106.25 116.044 106.25 128.125C106.25 140.206 116.044 150 128.125 150Z" fill="url(#paint12_linear)"/>
<path d="M196.875 150C208.956 150 218.75 140.206 218.75 128.125C218.75 116.044 208.956 106.25 196.875 106.25C184.794 106.25 175 116.044 175 128.125C175 140.206 184.794 150 196.875 150Z" fill="url(#paint13_linear)"/>
<path d="M187.5 220.687V233.187C171.329 238.937 153.671 238.937 137.5 233.187V220.687C153.671 226.437 171.329 226.437 187.5 220.687Z" fill="#FCD2C3"/>
<path d="M141.375 374.999L139.063 393.749H12.5L15.625 374.999H141.375Z" fill="#293858"/>
<path d="M312.498 393.749H185.936L183.623 374.999H309.373L312.498 393.749Z" fill="#293858"/>
<path d="M185.938 393.749H139.062L141.375 374.999H183.625L185.938 393.749Z" fill="#F2994A"/>
<path d="M375 374.999H312.5V393.749H375V374.999Z" fill="#293858"/>
<defs>
<linearGradient id="paint0_linear" x1="162.5" y1="393.749" x2="162.5" y2="243.687" gradientUnits="userSpaceOnUse">
<stop stop-color="#293858"/>
<stop offset="1" stop-color="#4D8CE5"/>
</linearGradient>
<linearGradient id="paint1_linear" x1="162.5" y1="224.999" x2="162.5" y2="57.4366" gradientUnits="userSpaceOnUse">
<stop stop-color="#F2C4B0"/>
<stop offset="1" stop-color="#FFE3D7"/>
</linearGradient>
<linearGradient id="paint2_linear" x1="1212.5" y1="2535.49" x2="1212.5" y2="2152.31" gradientUnits="userSpaceOnUse">
<stop stop-color="#7AA8D7"/>
<stop offset="1" stop-color="#C3D2E7"/>
</linearGradient>
<linearGradient id="paint3_linear" x1="1437.5" y1="2287.37" x2="1437.5" y2="1917.77" gradientUnits="userSpaceOnUse">
<stop stop-color="#F2C4B0"/>
<stop offset="1" stop-color="#FFE3D7"/>
</linearGradient>
<linearGradient id="paint4_linear" x1="1662.5" y1="2535.49" x2="1662.5" y2="2152.31" gradientUnits="userSpaceOnUse">
<stop stop-color="#293858"/>
<stop offset="1" stop-color="#C3D2E7"/>
</linearGradient>
<linearGradient id="paint5_linear" x1="162.504" y1="306.249" x2="162.504" y2="268.749" gradientUnits="userSpaceOnUse">
<stop stop-color="#DA5466"/>
<stop offset="1" stop-color="#F4929C"/>
</linearGradient>
<linearGradient id="paint6_linear" x1="139.062" y1="5806.86" x2="299.665" y2="4600.56" gradientUnits="userSpaceOnUse">
<stop stop-color="#DA5466"/>
<stop offset="1" stop-color="#F4929C"/>
</linearGradient>
<linearGradient id="paint7_linear" x1="1237.5" y1="1056.25" x2="1237.5" y2="831.25" gradientUnits="userSpaceOnUse">
<stop stop-color="#F2C4B0"/>
<stop offset="1" stop-color="#FFE3D7"/>
</linearGradient>
<linearGradient id="paint8_linear" x1="362.5" y1="1056.25" x2="362.5" y2="831.25" gradientUnits="userSpaceOnUse">
<stop stop-color="#F2C4B0"/>
<stop offset="1" stop-color="#FFE3D7"/>
</linearGradient>
<linearGradient id="paint9_linear" x1="159.375" y1="124.999" x2="159.375" y2="6.0617" gradientUnits="userSpaceOnUse">
<stop stop-color="#9B756D"/>
<stop offset="1" stop-color="#BC9388"/>
</linearGradient>
<linearGradient id="paint10_linear" x1="3750" y1="299.999" x2="3750" y2="4800" gradientUnits="userSpaceOnUse">
<stop stop-color="#2D467D"/>
<stop offset="1" stop-color="#5D9EF9"/>
</linearGradient>
<linearGradient id="paint11_linear" x1="4823.56" y1="5295.32" x2="4823.56" y2="3487.44" gradientUnits="userSpaceOnUse">
<stop stop-color="#FD6F32"/>
<stop offset="1" stop-color="#FFE3D7"/>
</linearGradient>
<linearGradient id="paint12_linear" x1="128.125" y1="150" x2="128.125" y2="106.25" gradientUnits="userSpaceOnUse">
<stop stop-color="#9DD5DF"/>
<stop offset="1" stop-color="#C3E1F5"/>
</linearGradient>
<linearGradient id="paint13_linear" x1="1553.12" y1="106.25" x2="1553.12" y2="106.25" gradientUnits="userSpaceOnUse">
<stop stop-color="#9DD5DF"/>
<stop offset="1" stop-color="#C3E1F5"/>
</linearGradient>
</defs>
</svg>
