<svg width="400" height="400" viewBox="0 0 400 400" fill="none" xmlns="http://www.w3.org/2000/svg">
<path d="M375 393.75V6.25H25V393.75H375Z" fill="url(#paint0_linear)"/>
<path d="M375 393.75V381.25H25V393.75H375Z" fill="#C7CDD8"/>
<path d="M375 6.25H25V56.25H375V6.25Z" fill="url(#paint1_linear)"/>
<path d="M62.5 31.25C62.5 32.9076 61.8415 34.4973 60.6694 35.6694C59.4973 36.8415 57.9076 37.5 56.25 37.5C54.5924 37.5 53.0027 36.8415 51.8306 35.6694C50.6585 34.4973 50 32.9076 50 31.25C50 29.5924 50.6585 28.0027 51.8306 26.8306C53.0027 25.6585 54.5924 25 56.25 25C57.9076 25 59.4973 25.6585 60.6694 26.8306C61.8415 28.0027 62.5 29.5924 62.5 31.25Z" fill="#CF4055"/>
<path d="M93.75 31.25C93.75 32.9076 93.0915 34.4973 91.9194 35.6694C90.7473 36.8415 89.1576 37.5 87.5 37.5C85.8424 37.5 84.2527 36.8415 83.0806 35.6694C81.9085 34.4973 81.25 32.9076 81.25 31.25C81.25 29.5924 81.9085 28.0027 83.0806 26.8306C84.2527 25.6585 85.8424 25 87.5 25C89.1576 25 90.7473 25.6585 91.9194 26.8306C93.0915 28.0027 93.75 29.5924 93.75 31.25Z" fill="#F6B756"/>
<path d="M125 31.25C125 32.9076 124.342 34.4973 123.169 35.6694C121.997 36.8415 120.408 37.5 118.75 37.5C117.092 37.5 115.503 36.8415 114.331 35.6694C113.158 34.4973 112.5 32.9076 112.5 31.25C112.5 29.5924 113.158 28.0027 114.331 26.8306C115.503 25.6585 117.092 25 118.75 25C120.408 25 121.997 25.6585 123.169 26.8306C124.342 28.0027 125 29.5924 125 31.25Z" fill="#7ECE67"/>
<path d="M343.75 87.5H56.25V181.25H343.75V87.5Z" fill="url(#paint2_linear)"/>
<path d="M343.75 168.75H56.25V181.25H343.75V168.75Z" fill="#293858"/>
<path d="M131.25 287.5H56.25C54.5924 287.5 53.0027 286.842 51.8306 285.669C50.6585 284.497 50 282.908 50 281.25C50 279.592 50.6585 278.003 51.8306 276.831C53.0027 275.658 54.5924 275 56.25 275H131.25C132.908 275 134.497 275.658 135.669 276.831C136.842 278.003 137.5 279.592 137.5 281.25C137.5 282.908 136.842 284.497 135.669 285.669C134.497 286.842 132.908 287.5 131.25 287.5Z" fill="#9CA0AD"/>
<path d="M131.25 312.5H56.25C54.5924 312.5 53.0027 311.842 51.8306 310.669C50.6585 309.497 50 307.908 50 306.25C50 304.592 50.6585 303.003 51.8306 301.831C53.0027 300.658 54.5924 300 56.25 300H131.25C132.908 300 134.497 300.658 135.669 301.831C136.842 303.003 137.5 304.592 137.5 306.25C137.5 307.908 136.842 309.497 135.669 310.669C134.497 311.842 132.908 312.5 131.25 312.5Z" fill="#9CA0AD"/>
<path d="M237.5 287.5H162.5C160.842 287.5 159.253 286.842 158.081 285.669C156.908 284.497 156.25 282.908 156.25 281.25C156.25 279.592 156.908 278.003 158.081 276.831C159.253 275.658 160.842 275 162.5 275H237.5C239.158 275 240.747 275.658 241.919 276.831C243.092 278.003 243.75 279.592 243.75 281.25C243.75 282.908 243.092 284.497 241.919 285.669C240.747 286.842 239.158 287.5 237.5 287.5Z" fill="#9CA0AD"/>
<path d="M237.5 312.5H162.5C160.842 312.5 159.253 311.842 158.081 310.669C156.908 309.497 156.25 307.908 156.25 306.25C156.25 304.592 156.908 303.003 158.081 301.831C159.253 300.658 160.842 300 162.5 300H237.5C239.158 300 240.747 300.658 241.919 301.831C243.092 303.003 243.75 304.592 243.75 306.25C243.75 307.908 243.092 309.497 241.919 310.669C240.747 311.842 239.158 312.5 237.5 312.5Z" fill="#9CA0AD"/>
<path d="M343.75 287.5H268.75C267.092 287.5 265.503 286.842 264.331 285.669C263.158 284.497 262.5 282.908 262.5 281.25C262.5 279.592 263.158 278.003 264.331 276.831C265.503 275.658 267.092 275 268.75 275H343.75C345.408 275 346.997 275.658 348.169 276.831C349.342 278.003 350 279.592 350 281.25C350 282.908 349.342 284.497 348.169 285.669C346.997 286.842 345.408 287.5 343.75 287.5Z" fill="#9CA0AD"/>
<path d="M343.75 312.5H268.75C267.092 312.5 265.503 311.842 264.331 310.669C263.158 309.497 262.5 307.908 262.5 306.25C262.5 304.592 263.158 303.003 264.331 301.831C265.503 300.658 267.092 300 268.75 300H343.75C345.408 300 346.997 300.658 348.169 301.831C349.342 303.003 350 304.592 350 306.25C350 307.908 349.342 309.497 348.169 310.669C346.997 311.842 345.408 312.5 343.75 312.5Z" fill="#9CA0AD"/>
<path d="M343.75 368.75H56.25C54.5924 368.75 53.0027 368.092 51.8306 366.919C50.6585 365.747 50 364.158 50 362.5C50 360.842 50.6585 359.253 51.8306 358.081C53.0027 356.908 54.5924 356.25 56.25 356.25H343.75C345.408 356.25 346.997 356.908 348.169 358.081C349.342 359.253 350 360.842 350 362.5C350 364.158 349.342 365.747 348.169 366.919C346.997 368.092 345.408 368.75 343.75 368.75Z" fill="#9CA0AD"/>
<path d="M343.75 343.75H56.25C54.5924 343.75 53.0027 343.092 51.8306 341.919C50.6585 340.747 50 339.158 50 337.5C50 335.842 50.6585 334.253 51.8306 333.081C53.0027 331.908 54.5924 331.25 56.25 331.25H343.75C345.408 331.25 346.997 331.908 348.169 333.081C349.342 334.253 350 335.842 350 337.5C350 339.158 349.342 340.747 348.169 341.919C346.997 343.092 345.408 343.75 343.75 343.75Z" fill="#9CA0AD"/>
<path d="M131.25 212.5H56.25V250H131.25V212.5Z" fill="url(#paint3_linear)"/>
<path d="M237.5 212.5H162.5V250H237.5V212.5Z" fill="url(#paint4_linear)"/>
<path d="M343.75 212.5H268.75V250H343.75V212.5Z" fill="url(#paint5_linear)"/>
<path d="M131.25 237.5H56.25V250H131.25V237.5Z" fill="#F2994A"/>
<path d="M237.5 237.5H162.5V250H237.5V237.5Z" fill="#F2994A"/>
<path d="M343.75 237.5H268.75V250H343.75V237.5Z" fill="#F2994A"/>
<defs>
<linearGradient id="paint0_linear" x1="200" y1="393.75" x2="200" y2="6.25" gradientUnits="userSpaceOnUse">
<stop stop-color="#D4D8E1"/>
<stop offset="1" stop-color="#F3F4F5"/>
</linearGradient>
<linearGradient id="paint1_linear" x1="200" y1="56.25" x2="200" y2="6.25" gradientUnits="userSpaceOnUse">
<stop stop-color="#A0A6BA"/>
<stop offset="1" stop-color="#C6CCDA"/>
</linearGradient>
<linearGradient id="paint2_linear" x1="200" y1="181.25" x2="200" y2="87.5" gradientUnits="userSpaceOnUse">
<stop stop-color="#293858"/>
<stop offset="1" stop-color="#A1B7D6"/>
</linearGradient>
<linearGradient id="paint3_linear" x1="93.75" y1="250" x2="93.75" y2="212.5" gradientUnits="userSpaceOnUse">
<stop stop-color="#F2994A"/>
<stop offset="1" stop-color="#F2BE80"/>
</linearGradient>
<linearGradient id="paint4_linear" x1="2562.5" y1="212.5" x2="2562.5" y2="212.5" gradientUnits="userSpaceOnUse">
<stop stop-color="#FCA85E"/>
<stop offset="1" stop-color="#F8B679"/>
</linearGradient>
<linearGradient id="paint5_linear" x1="3943.75" y1="212.5" x2="3943.75" y2="212.5" gradientUnits="userSpaceOnUse">
<stop stop-color="#F9A459"/>
<stop offset="1" stop-color="#EEC08A"/>
</linearGradient>
</defs>
</svg>
